<?xml version="1.0" encoding="utf-8"?>
<!-- Generator: Adobe Illustrator 26.3.1, SVG Export Plug-In . SVG Version: 6.00 Build 0)  -->
<svg version="1.1" id="Layer_1" xmlns="http://www.w3.org/2000/svg" xmlns:xlink="http://www.w3.org/1999/xlink" x="0px" y="0px"
	 viewBox="0 0 1024 1024" style="enable-background:new 0 0 1024 1024;" xml:space="preserve">
<style type="text/css">
	.st0{fill:#FFFFFF;}
</style>
<g>
	<path class="st0" d="M-232.05,301.04c11.19,3.47,22.45,6.84,33.08,11.89c27.01,12.08,51.92,28.95,72.78,49.96
		c26.74,27.17,46.74,60.95,57.44,97.56c5.54,16.98,8.09,34.78,9.44,52.54c0.84,24.19-1.99,48.46-7.8,71.94
		c-9.01,0.15-18.01,0.01-27.01,0.09c3.37-15.14,6.69-30.35,7.85-45.85c4.05-52.74-14.08-106.61-48.32-146.83
		c-23.22-26.96-53.1-48.31-86.6-60.5c-3.54-1.25-7.12-2.38-10.76-3.25C-232.64,319.43-232.52,310.2-232.05,301.04z"/>
	<path class="st0" d="M-450.13,355.08c28.11-24.83,61.46-44.45,98.01-53.61c-0.19,9.04,0.03,18.09-0.2,27.13
		c-27.16,7.21-52,21.73-73.44,39.7c-21.16,17.86-38.77,40.03-51.26,64.78c-14.63,28.62-22.11,60.82-21.8,92.95
		c0.4,19.84,3.1,39.63,8.18,58.83c-8.99-0.17-18.17,0.62-27.03-0.23c-8.06-31.49-9.61-64.62-4.75-96.74
		c6.25-35.82,20.69-70.33,42.63-99.39C-471.09,376.37-460.87,365.41-450.13,355.08z"/>
	<path class="st0" d="M-350.47,364.76c38.8,0.5,77.61,0.15,116.41,0.17c-0.18,36.11,0,72.22-0.08,108.32
		c-14.16,6.4-27.54,15.18-37.35,27.4c-10,11.9-16.83,26.27-20.58,41.32c-0.98-3.9-1.84-7.85-3.46-11.53
		c-3.74-8.61-7.54-17.28-12.94-25c-7.98-10.95-18.11-20.39-29.86-27.17c-3.79-2.33-7.9-4.06-11.75-6.27
		C-350.56,436.26-350.07,400.5-350.47,364.76z"/>
	<path class="st0" d="M-211.45,411.66c8.23-9.32,23.65-11.47,33.8-4.05c6.48,4.53,10.88,12.37,10.6,20.36
		c0.32,8.55-4.7,16.67-11.68,21.33c-1.65,1.06-4.08,1.12-5.05,3.03c-2.68,6.1-3.45,12.92-6.67,18.81
		c18.98,0.43,37.98-0.75,56.95,0.23c-0.1,37.87,0.01,75.75-0.04,113.62c-33.52,0.18-67.05,0.17-100.57-0.05
		c-0.04,35.05,0.07,70.1-0.11,105.15c-16.59-0.24-33.18,0.11-49.76-0.18c0.25-28.28-0.05-56.57,0.13-84.85
		c0.11-10.36-0.25-20.73,0.63-31.05c0.65-9.61,2.98-19.03,6.28-28.05c5.5-17.1,14.9-33.33,28.97-44.77
		c6.96-6.08,15.54-9.69,23.43-14.35c5.68-3.15,11.69-6.6,15.05-12.39c4.08-6.93,6.76-14.56,9.19-22.19
		c-8.25-2.47-14.57-9.83-16.34-18.17C-218.29,426.38-216.8,417.66-211.45,411.66z"/>
	<path class="st0" d="M-450.94,471.13c20.58-0.12,41.16-0.12,61.74,0c-1.11,5.1,0.25,11.1,4.82,14.11
		c5.48,4.32,13.19,1.74,18.16-2.15c12.21,4.35,23.73,10.93,33.19,19.85c11.68,10.41,19.28,24.59,24.48,39.16
		c5.43,13.94,7.84,28.97,7.61,43.9c0,34.68,0.33,69.37-0.18,104.05c-16.36-0.12-32.73-0.04-49.09,0.04
		c-0.1-35.02,0.03-70.05,0-105.07c-33.4,0.17-66.8-0.06-100.2,0.14c-0.65-6.01-0.42-12.05-0.44-18.07
		C-450.85,535.1-450.93,503.12-450.94,471.13z"/>
	<path class="st0" d="M-510.69,606.68c23.51-0.59,47.04-0.04,70.55-0.22c4.67,0.06,9.34,0,14.01,0.26
		c-0.03,6.37,0.07,12.74-0.08,19.11c-25.2-0.21-50.4,0.1-75.59-0.14C-504.79,619.36-507.84,613.07-510.69,606.68z"/>
	<path class="st0" d="M-158.23,606.63c26.7-0.27,53.41-0.45,80.12-0.14c1.31,0.15,2.89-0.29,4.08,0.49
		c-3.38,6.13-6.13,12.57-9.33,18.8c-24.82,0.14-49.64,0.17-74.45-0.02C-158.06,619.38-157.96,613-158.23,606.63z"/>
	<path class="st0" d="M-491.45,644.97c32.75,0.09,65.5-0.13,98.25,0.16c0.02,6.23-0.24,12.46-0.15,18.7
		c-28.57,0.05-57.14-0.01-85.71,0.05C-483.32,657.66-487.42,651.33-491.45,644.97z"/>
	<path class="st0" d="M-191.12,645.03c32.74,0.09,65.49-0.32,98.23,0.12c-4.44,5.98-8.48,12.27-12.7,18.4
		c-17.82,0.75-35.68,0.05-53.51,0.3c-10.65-0.05-21.31,0.27-31.95-0.06C-191.05,657.53-191.11,651.28-191.12,645.03z"/>
	<path class="st0" d="M-462.89,683.8c12.51,0.45,25.1-0.31,37.58,0.3c8.45,6.29,16.59,13.11,25.65,18.54
		c14.5,8.42,29.54,16.22,45.65,21.09c19.64,6.32,40.29,9.57,60.92,9.29c34.29,0.91,68.39-8.48,98.58-24.47
		c12.82-6.74,24.84-15.07,35.79-24.53c12.31-0.13,24.62-0.17,36.93-0.13c-15.82,18.76-36.01,33.29-57.36,45.15
		c-26.94,14.48-56.48,24.87-87.08,27.45c-15.54,1.57-31.24,2.18-46.82,0.62c-30.48-1.57-59.98-11.36-87.08-25.04
		C-423.55,719.67-445.67,704.13-462.89,683.8z"/>
</g>
</svg>
